<?xml version="1.0" encoding="UTF-8"?>
<svg version="1.1" viewBox="0 0 1600 1592" width="1280" height="1280" xmlns="http://www.w3.org/2000/svg">
<path transform="translate(1481 23.6)" d="m0 0c0.93-0.01 1.86-0.01 2.81-0.02 31.8-0.14 60 7.85 83.3 30.3 30 30.3 31.3 77.1 33 117 0.05 1.09 0.1 2.18 0.14 3.3 1.6 44.1-6 90.7-19.1 133-0.42 1.39-0.42 1.39-0.86 2.8-1.88 6.13-3.95 12.2-6.14 18.2-0.54 1.51-0.54 1.51-1.1 3.05-10.7 29.2-24.2 57-41.1 83.1-1.71 2.67-3.39 5.35-5.05 8.04-5.71 9.21-11.7 18.1-18 26.9-2.95 4.13-5.77 8.36-8.57 12.6-2.66 4-5.38 7.96-8.1 11.9-5.24 7.66-10.5 15.3-15.7 23-5.17 7.61-10.3 15.2-15.6 22.8-2.18 3.15-4.34 6.31-6.47 9.5-6.59 9.81-13.8 19-21.4 28-0.63 0.76-1.27 1.53-1.92 2.32-9.52 11.2-20.3 20.9-32.1 29.7-0.57 0.43-1.13 0.86-1.72 1.3-20.2 15.2-43.2 26.2-67.3 33.7-0.75 0.23-1.5 0.47-2.27 0.72-29.9 9.2-61.9 9.63-92.8 11.4-41.2 1.32-41.2 1.32-80.9 10.8-0.67 0.24-1.34 0.48-2.03 0.73-27.5 9.98-49 28.6-66.4 51.9-2.89 3.84-6.03 7.44-9.2 11-5.26 6.01-10.4 12.1-15.4 18.3-1.02 1.25-2.03 2.49-3.05 3.74-5.19 6.35-10.3 12.7-15.4 19.2-4.75 6.09-9.65 12.1-14.6 18-3.67 4.43-7.3 8.9-10.9 13.4-2.78 3.48-5.6 6.93-8.42 10.4-4.16 5.1-8.27 10.2-12.3 15.4-3.55 4.56-7.19 9-10.9 13.4-3.98 4.65-7.76 9.4-11.5 14.3-4.1 5.39-8.42 10.6-12.7 15.8-3.65 4.41-7.23 8.85-10.8 13.4-4.66 5.98-9.47 11.8-14.3 17.7-3.62 4.39-7.19 8.82-10.7 13.3-4.66 5.98-9.47 11.8-14.3 17.7-3.62 4.39-7.19 8.82-10.7 13.3-4.65 5.98-9.46 11.8-14.3 17.7-4.18 5.06-8.26 10.2-12.3 15.4-3.76 4.81-7.65 9.5-11.6 14.2-4.41 5.28-8.68 10.7-12.9 16.1-5.18 6.64-10.5 13.2-15.9 19.6-2.73 3.31-5.39 6.67-8.03 10.1-4.21 5.41-8.56 10.7-13 15.9-2.72 3.29-5.35 6.63-7.97 10-4.11 5.28-8.37 10.4-12.7 15.5-3.05 3.58-5.98 7.24-8.84 11-7.12 9.14-14.6 18-21.9 27-1.42 1.74-2.84 3.48-4.26 5.23-3.57 4.38-7.16 8.73-10.8 13-4.77 5.59-9.37 11.3-13.9 17.1-3.12 3.99-6.33 7.88-9.63 11.7-4.21 4.92-8.25 9.95-12.2 15.1-3.49 4.48-7.04 8.91-10.6 13.3-0.54 0.67-1.09 1.33-1.65 2.02-2.21 2.72-4.43 5.43-6.64 8.15-6.22 7.62-12.4 15.3-18.5 23-3.42 4.38-6.91 8.68-10.4 13-7.04 8.57-14.1 17.2-20.9 25.9-4.68 6-9.5 11.9-14.4 17.7-4.18 5.06-8.26 10.2-12.3 15.4-3.76 4.82-7.66 9.51-11.6 14.2-2.74 3.28-5.41 6.62-8.07 9.96-2.83 3.54-5.7 7.05-8.56 10.6-4.09 5.02-8.14 10.1-12.1 15.2-4.68 6-9.51 11.9-14.4 17.7-3.62 4.39-7.19 8.82-10.7 13.3-4.73 6.08-9.61 12-14.5 18-3.67 4.43-7.3 8.9-10.9 13.4-2.78 3.48-5.6 6.93-8.42 10.4-4.09 5.02-8.14 10.1-12.1 15.2-4.75 6.09-9.64 12-14.6 18-4.39 5.3-8.72 10.6-13 16-4.07 5.11-8.16 10.2-12.3 15.2-3.42 4.16-6.75 8.38-10.1 12.6-4.12 5.28-8.36 10.4-12.7 15.5-2.75 3.22-5.42 6.48-8.04 9.8-2.64 3.34-5.38 6.5-8.25 9.63-3.88 4.25-7.42 8.71-10.9 13.3-6.84 9-14 17.6-21.7 25.9-1.12 1.23-1.12 1.23-2.26 2.49-19.3 20.4-48.4 31.6-76.2 32.8-33.9 0.72-66.6-9.17-92.6-31.3-1.68-1.65-3.35-3.32-5-5-1.18-1.14-1.18-1.14-2.39-2.29-23.6-22.8-37.2-56-37.9-88.7-0.11-33 10.7-60.4 33.1-84.7 2.92-3.18 5.73-6.46 8.54-9.75 1.63-1.61 1.63-1.61 3.63-1.61 0.21-0.54 0.42-1.07 0.64-1.63 1.89-3.29 4.51-5.75 7.21-8.38 0.86-0.85 0.86-0.85 1.73-1.72 1.83-1.8 3.65-3.6 5.48-5.4 1.84-1.8 3.67-3.61 5.5-5.42 1.13-1.12 2.27-2.25 3.42-3.36 2.87-2.77 2.87-2.77 5.02-6.09h2c0.25-0.58 0.5-1.16 0.76-1.75 1.41-2.55 3.01-4.25 5.08-6.3 0.79-0.78 1.57-1.57 2.39-2.38 0.85-0.83 1.7-1.67 2.58-2.54 0.87-0.87 1.75-1.74 2.65-2.63 2.33-2.32 4.66-4.62 6.99-6.93 3.28-3.24 6.55-6.49 9.82-9.73 1.74-1.73 3.49-3.46 5.23-5.18 1.19-1.18 1.19-1.18 2.41-2.39 0.69-0.68 1.39-1.37 2.11-2.08 2.14-2.26 4.05-4.65 5.98-7.09 1.16-1.08 2.34-2.12 3.56-3.13 4.92-4.22 9.49-8.77 14.1-13.4 1.44-1.45 2.89-2.89 4.34-4.33 3.89-3.89 7.77-7.78 11.3-12 5.61-6.54 11.9-12.5 18-18.5 2.54-2.51 5.07-5.03 7.61-7.55 0.58-0.57 1.16-1.14 1.76-1.73 2.38-2.37 4.44-4.59 6.31-7.4h2c0.26-0.59 0.52-1.17 0.78-1.77 1.33-2.43 2.77-4.02 4.73-5.96 0.72-0.71 1.44-1.43 2.18-2.16 0.78-0.77 1.55-1.53 2.36-2.32 0.8-0.79 1.6-1.59 2.43-2.41 2.56-2.55 5.14-5.09 7.71-7.63 2.56-2.53 5.11-5.06 7.66-7.59 1.59-1.58 3.18-3.15 4.77-4.72 4.08-4.04 7.95-8.18 11.7-12.5 2.74-3.12 5.69-6.02 8.64-8.93 0.63-0.63 1.26-1.25 1.91-1.9 1.98-1.97 3.96-3.93 5.95-5.9 2.63-2.6 5.26-5.21 7.89-7.83 0.6-0.59 1.2-1.18 1.82-1.8 2.44-2.42 4.56-4.68 6.47-7.55h2c0.22-0.54 0.43-1.08 0.65-1.64 1.84-3.21 4.36-5.6 6.99-8.16 0.56-0.55 1.11-1.1 1.69-1.67 1.78-1.77 3.57-3.53 5.36-5.28 1.77-1.75 3.54-3.49 5.31-5.24 1.09-1.08 2.19-2.17 3.3-3.24 2.81-2.78 5.47-5.62 8.05-8.62 3.93-4.53 8.14-8.75 12.4-13 0.82-0.81 1.64-1.62 2.48-2.46 3.46-3.44 6.93-6.88 10.4-10.3 2.55-2.53 5.09-5.06 7.63-7.59 0.78-0.76 1.55-1.53 2.35-2.32 4.09-4.07 7.98-8.24 11.8-12.6 2.59-2.95 5.37-5.71 8.17-8.46 0.88-0.88 0.88-0.88 1.77-1.76 1.84-1.83 3.68-3.65 5.53-5.48 2.44-2.42 4.89-4.84 7.33-7.26 0.56-0.55 1.11-1.1 1.69-1.67 2.34-2.33 4.33-4.5 6.16-7.25h2c0.21-0.54 0.43-1.08 0.65-1.64 1.85-3.24 4.41-5.64 7.06-8.23 0.56-0.56 1.12-1.11 1.7-1.69 1.8-1.78 3.6-3.55 5.41-5.32 1.79-1.76 3.58-3.53 5.36-5.3 1.11-1.09 2.23-2.19 3.34-3.28 2.58-2.54 4.98-5.1 7.24-7.93 0.74-0.86 1.48-1.72 2.24-2.61h2c0.26-0.58 0.51-1.17 0.78-1.76 1.34-2.46 2.82-4.08 4.81-6.05 0.74-0.73 1.47-1.46 2.23-2.21 0.79-0.78 1.58-1.56 2.4-2.36 1.22-1.21 1.22-1.21 2.47-2.45 2.6-2.58 5.2-5.16 7.81-7.73 2.61-2.58 5.22-5.17 7.82-7.75 1.62-1.61 3.24-3.21 4.87-4.81 0.73-0.73 1.46-1.46 2.22-2.21 0.97-0.96 0.97-0.96 1.96-1.93 1.82-1.85 1.82-1.85 3.63-4.74h2c0.28-0.6 0.55-1.2 0.83-1.82 1.14-2.13 2.24-3.49 3.95-5.18 0.56-0.55 1.12-1.1 1.69-1.67 0.6-0.59 1.2-1.17 1.82-1.78 0.61-0.61 1.23-1.22 1.87-1.85 1.96-1.95 3.93-3.89 5.9-5.83 1.98-1.95 3.95-3.89 5.93-5.85 1.22-1.21 2.45-2.42 3.68-3.63 3.04-2.91 3.04-2.91 5.33-6.39h2c0.27-0.59 0.54-1.19 0.81-1.8 1.21-2.24 2.44-3.71 4.23-5.5 0.62-0.62 1.23-1.24 1.86-1.88 0.67-0.66 1.33-1.32 2.01-1.99 0.68-0.69 1.36-1.37 2.06-2.07 1.44-1.44 2.88-2.88 4.32-4.31 2.21-2.2 4.41-4.41 6.61-6.63 1.4-1.39 2.8-2.79 4.2-4.18 0.66-0.67 1.32-1.33 2-2.02 0.61-0.61 1.23-1.21 1.86-1.84 0.54-0.54 1.08-1.08 1.64-1.63 1.4-1.15 1.4-1.15 3.4-1.15 0.27-0.59 0.53-1.18 0.8-1.79 1.25-2.29 2.53-3.78 4.38-5.6 0.64-0.64 1.29-1.28 1.95-1.94 0.7-0.69 1.39-1.37 2.11-2.07 0.72-0.71 1.44-1.43 2.18-2.16 2.29-2.28 4.59-4.55 6.9-6.82 2.29-2.26 4.58-4.53 6.86-6.79 1.42-1.41 2.85-2.82 4.28-4.22 2.95-2.93 5.79-5.84 8.39-9.09 0.71-0.83 1.42-1.67 2.15-2.52h2c0.27-0.6 0.54-1.19 0.81-1.8 1.21-2.24 2.43-3.68 4.23-5.45l1.86-1.86c0.67-0.64 1.33-1.29 2.01-1.96 1.02-1.01 1.02-1.01 2.06-2.05 2.17-2.15 4.35-4.3 6.53-6.44 2.18-2.16 4.36-4.31 6.53-6.47 1.36-1.34 2.71-2.67 4.07-4.01 0.61-0.61 1.23-1.21 1.86-1.84 0.54-0.53 1.08-1.06 1.64-1.61 1.62-1.67 1.62-1.67 3.4-4.51h2c0.28-0.6 0.55-1.2 0.83-1.82 1.14-2.13 2.24-3.49 3.95-5.17 0.56-0.56 1.12-1.11 1.69-1.68 0.6-0.59 1.21-1.18 1.83-1.79 0.93-0.92 0.93-0.92 1.89-1.87 1.99-1.98 4-3.95 6-5.92 1.99-1.96 3.97-3.92 5.95-5.88 1.23-1.22 2.46-2.43 3.7-3.65 2.98-2.94 5.83-5.95 8.57-9.12 3.82-4.43 7.92-8.54 12.1-12.6 0.79-0.78 1.57-1.56 2.38-2.37 2.48-2.47 4.96-4.93 7.45-7.4 3.29-3.26 6.57-6.53 9.86-9.8 0.75-0.74 1.51-1.49 2.29-2.26 0.69-0.69 1.39-1.39 2.11-2.1 0.62-0.61 1.23-1.22 1.86-1.85 1.76-1.79 1.76-1.79 3.56-4.67h2c0.28-0.6 0.55-1.2 0.83-1.82 1.14-2.13 2.24-3.49 3.95-5.17 0.56-0.56 1.12-1.11 1.69-1.68 0.6-0.59 1.21-1.18 1.83-1.79 0.93-0.92 0.93-0.92 1.89-1.87 1.99-1.98 4-3.95 6-5.92l7.86-7.77c0.63-0.62 1.26-1.25 1.91-1.89 3.56-3.55 6.94-7.18 10.2-11 5.24-5.87 11-11.3 16.6-16.8 1.71-1.69 3.42-3.39 5.13-5.09 0.51-0.5 1.02-1 1.54-1.52 2.77-2.75 5.4-5.57 7.95-8.53 3.78-4.37 7.83-8.44 12-12.5 0.77-0.77 1.54-1.54 2.34-2.33 3.27-3.25 6.54-6.5 9.82-9.75 2.4-2.39 4.81-4.78 7.21-7.17 0.73-0.72 1.46-1.44 2.21-2.18 4.05-4.03 7.91-8.16 11.6-12.5 1.93-2.21 4.03-4.19 6.17-6.19 9.19-9.09 17.3-20.1 23.3-31.5 0.31-0.57 0.61-1.14 0.92-1.72 8.21-15.5 13.7-33 14.6-50.6 0.05-0.7 0.09-1.4 0.14-2.12 0.71-13 0.3-25.9-0.57-38.9-0.14-2.16-0.28-4.32-0.41-6.48-0.09-1.5-0.19-3-0.28-4.5-5.36-84.8-5.36-84.8 1.56-115 0.22-0.94 0.43-1.89 0.65-2.86 6.13-26.1 16.5-52.4 32.4-74.1 0.9-1.29 0.9-1.29 1.82-2.6 8.26-11.7 17.3-22.8 27.4-32.9 0.65-0.66 1.3-1.31 1.96-1.98 4.59-4.52 4.59-4.52 6.85-4.52v-2c1.53-1.37 3.13-2.67 4.75-3.94 4.29-3.43 8.41-6.95 12.4-10.7 0.76-0.71 0.76-0.71 1.54-1.43 0.5-0.46 1-0.92 1.51-1.39 4.57-4.23 9.28-8.29 14-12.3 1.21-1.03 2.42-2.06 3.63-3.1 0.61-0.52 1.21-1.04 1.84-1.57 3.54-3.03 7.03-6.1 10.5-9.24 3.29-2.99 6.66-5.84 10.1-8.63 4.81-3.88 9.33-8.01 13.8-12.2 4.23-3.94 8.64-7.6 13.2-11.2 2.85-2.36 5.58-4.83 8.31-7.35 3.83-3.52 7.73-6.83 11.9-9.97 2.5-1.91 4.98-3.85 7.45-5.8 1.81-1.43 3.62-2.85 5.44-4.27 2.29-1.8 4.56-3.6 6.83-5.41 7.53-5.98 15.4-11.1 23.6-16.1 2.21-1.34 4.41-2.72 6.6-4.1 8.91-5.57 17.9-10.6 27.4-15.1 2.3-1.13 4.57-2.31 6.83-3.51 37.1-19.4 77.2-32.1 118-39.6 1.32-0.25 2.63-0.5 3.95-0.75 10.6-1.96 21.1-3.38 31.8-4.44 0.86-0.09 1.73-0.17 2.61-0.26 14.5-1.41 29-1.96 43.6-1.99zm-156 78.4c-0.81 0.33-1.63 0.67-2.47 1.01-11.2 4.61-21.9 10.2-32.5 16-1.16 0.62-2.31 1.25-3.51 1.89-16.3 9.03-32 19.4-46.5 31.1-1.82 1.44-3.64 2.87-5.47 4.3-1.21 0.95-2.41 1.9-3.62 2.85-3.21 2.54-6.47 5.01-9.78 7.41-1.03 0.8-2.07 1.61-3.13 2.44v2c-0.89 0.43-0.89 0.43-1.81 0.87-2.38 1.17-2.38 1.17-5.19 3.13v2c-0.54 0.22-1.09 0.45-1.65 0.68-3.05 1.71-5.4 3.99-7.91 6.38-3.85 3.61-7.75 7.07-11.9 10.4-4.77 3.84-9.25 7.93-13.7 12.1-4.19 3.9-8.56 7.51-13 11.1-3.22 2.68-6.27 5.49-9.32 8.35-4.75 4.45-9.66 8.63-14.7 12.7-4.14 3.43-8.05 7.08-12 10.7-2.22 2.04-4.47 4.03-6.77 5.99-15.1 13.2-26.9 28.2-37 45.6-0.39 0.67-0.79 1.35-1.19 2.04-14.6 25.3-21.3 54-21.1 83.1 0.01 1.13 0.01 1.13 0.01 2.27 0.07 17.6 1.11 35.2 2.24 52.7 1.16 18 2.19 36 2.17 54v2.08c-0.08 49.8-21.1 94.7-56 130-1.43 1.41-2.87 2.81-4.31 4.2-2.13 2.1-4.1 4.3-6.05 6.58-3.65 4.19-7.52 8.11-11.5 12-1.44 1.42-2.87 2.84-4.31 4.27l-6.72 6.63c-2.18 2.16-4.36 4.31-6.53 6.47-0.68 0.67-1.36 1.33-2.06 2.02-0.62 0.61-1.23 1.23-1.87 1.86-0.55 0.54-1.1 1.08-1.66 1.64-1.38 1.35-1.38 1.35-1.17 3.4-0.99 0.33-1.98 0.66-3 1-1.4 1.38-1.4 1.38-2.8 3.17-5.12 6.03-10.8 11.5-16.4 17.1l-6.18 6.15c-5.12 5.1-10.2 10.2-15.4 15.3-4.34 4.32-8.67 8.63-13 13l-6.06 6.03c-5.4 5.38-10.7 10.7-15.7 16.6-2.9 3.32-6.06 6.38-9.19 9.48-0.71 0.7-1.42 1.4-2.14 2.12-2.99 2.97-5.98 5.93-8.96 8.89-2.2 2.18-4.4 4.37-6.59 6.55-0.66 0.65-1.33 1.31-2.01 1.98-3.17 3.15-6.22 6.34-9.13 9.72-3.62 4.19-7.48 8.07-11.4 12-1.48 1.47-2.96 2.93-4.44 4.4-2.31 2.29-4.63 4.57-6.94 6.86-2.25 2.22-4.5 4.45-6.74 6.67-0.7 0.69-1.4 1.38-2.13 2.08-0.63 0.64-1.27 1.27-1.93 1.93-0.56 0.56-1.13 1.11-1.71 1.69-1.42 1.38-1.42 1.38-1.21 3.44-0.99 0.33-1.98 0.66-3 1-1.49 1.47-1.49 1.47-2.97 3.34-3.01 3.56-6.19 6.91-9.5 10.2l-1.47 1.47c-2.03 2-4.06 4-6.09 6.01-1.5 1.48-3 2.97-4.5 4.46-1.32 1.3-1.32 1.3-2.67 2.63-2.16 2.18-4.17 4.46-6.17 6.77-3.52 4.06-7.25 7.86-11.1 11.6-0.68 0.68-1.36 1.36-2.07 2.06-2.88 2.87-5.78 5.74-8.67 8.6-2.13 2.11-4.26 4.22-6.38 6.34-0.64 0.63-1.28 1.26-1.95 1.92-3.11 3.1-6.11 6.25-8.99 9.58-3.47 4.02-7.17 7.77-11 11.5-1.39 1.38-2.78 2.75-4.17 4.13l-6.51 6.42c-2.11 2.08-4.22 4.17-6.32 6.26-0.66 0.64-1.31 1.29-1.99 1.95-0.6 0.59-1.2 1.19-1.81 1.8-0.53 0.52-1.06 1.05-1.61 1.58-1.34 1.33-1.34 1.33-1.13 3.37-0.99 0.33-1.98 0.66-3 1-1.46 1.44-1.46 1.44-2.9 3.28-3.18 3.74-6.52 7.23-10 10.7-0.54 0.53-1.07 1.05-1.62 1.6-2.21 2.2-4.43 4.39-6.65 6.58-1.64 1.63-3.28 3.25-4.92 4.88-0.73 0.72-0.73 0.72-1.48 1.45-2.73 2.71-5.31 5.5-7.82 8.41-3.58 4.13-7.38 7.99-11.3 11.8-0.71 0.7-1.42 1.4-2.14 2.12-2.99 2.97-5.98 5.93-8.96 8.89-2.2 2.18-4.4 4.37-6.59 6.55-0.66 0.65-1.33 1.31-2.01 1.98-3.17 3.15-6.22 6.34-9.13 9.72-3.62 4.19-7.48 8.07-11.4 12-1.48 1.47-2.96 2.93-4.44 4.4-2.31 2.29-4.63 4.57-6.94 6.86-2.25 2.22-4.5 4.45-6.74 6.67-0.7 0.69-1.4 1.38-2.13 2.08-0.63 0.64-1.27 1.27-1.93 1.93-0.85 0.83-0.85 0.83-1.71 1.69-1.42 1.38-1.42 1.38-1.21 3.44-0.99 0.33-1.98 0.66-3 1-1.44 1.42-1.44 1.42-2.88 3.26-3.25 3.83-6.69 7.39-10.3 10.9-0.55 0.54-1.1 1.08-1.66 1.64-2.29 2.27-4.59 4.53-6.89 6.78-1.7 1.67-3.39 3.34-5.07 5.01-0.79 0.77-0.79 0.77-1.6 1.55-1.24 1.24-2.44 2.54-3.63 3.84v2c-0.99 0.33-1.98 0.66-3 1-2.21 1.87-2.21 1.87-4 4v2c-0.99 0.33-1.98 0.66-3 1-2.21 1.87-2.21 1.87-4 4v2c-0.85 0.36-0.85 0.36-1.72 0.73-2.73 1.52-4.59 3.34-6.8 5.56-0.85 0.86-1.71 1.72-2.6 2.6-0.89 0.9-1.77 1.8-2.69 2.73-0.88 0.88-1.75 1.76-2.66 2.66-3.69 3.72-7.34 7.43-10.7 11.4-6.47 7.53-13.8 14.3-20.8 21.3-8.48 8.25-8.48 8.25-16.5 17-3.3 3.89-6.9 7.45-10.5 11-0.64 0.63-1.28 1.27-1.94 1.92-2.67 2.65-5.35 5.29-8.03 7.93-1.98 1.94-3.94 3.89-5.91 5.84-0.61 0.6-1.22 1.2-1.86 1.81-1.45 1.45-2.85 2.94-4.24 4.45v2c-0.99 0.33-1.98 0.66-3 1-1.37 1.36-1.37 1.36-2.75 3.13-3.56 4.19-7.37 8.06-11.3 11.9-0.64 0.63-1.28 1.27-1.94 1.92-2.67 2.64-5.35 5.29-8.03 7.93-1.98 1.94-3.94 3.89-5.91 5.84-0.61 0.6-1.22 1.2-1.86 1.81-1.45 1.45-2.85 2.94-4.24 4.45v2c-0.99 0.33-1.98 0.66-3 1-1.41 1.39-1.41 1.39-2.81 3.19-3.41 4.02-7.04 7.73-10.8 11.4-0.59 0.59-1.18 1.18-1.79 1.78-2.49 2.46-4.97 4.91-7.47 7.36l-5.49 5.43c-0.57 0.55-1.13 1.11-1.72 1.68-1.35 1.34-2.65 2.74-3.94 4.14v2c-0.99 0.33-1.98 0.66-3 1-1.41 1.39-1.41 1.39-2.81 3.18-3.4 4.02-7.02 7.74-10.8 11.4l-1.81 1.81c-2.51 2.48-5.01 4.96-7.52 7.44-8.03 7.83-8.03 7.83-15.6 16.1-3.25 3.83-6.78 7.34-10.3 10.9-0.92 0.92-0.92 0.92-1.86 1.85-2.58 2.55-5.16 5.1-7.75 7.64l-5.7 5.64c-0.59 0.58-1.18 1.15-1.79 1.75-1.4 1.39-2.75 2.83-4.09 4.29v2c-0.99 0.33-1.98 0.66-3 1-1.37 1.35-1.37 1.35-2.75 3.12-3.55 4.19-7.35 8.07-11.2 11.9-0.64 0.64-1.28 1.28-1.95 1.94-2.69 2.67-5.39 5.34-8.09 8.02-9.61 9.44-9.61 9.44-18.6 19.4-1.84 2.15-3.84 4.14-5.82 6.16-11.5 12.8-15.9 29.7-15.7 46.5 1.29 23.2 11.3 44.2 28.2 59.8 13.9 12 31.6 19.2 50 20 1.55 0.07 1.55 0.07 3.13 0.15 18 0.48 33.7-4.2 47.9-15.2 1.01-0.75 2.02-1.49 3.06-2.25 4.05-3.5 7.22-7.84 10.5-12 2.13-2.65 4.3-5.26 6.47-7.87 5.34-6.45 10.6-13 15.8-19.6 4.23-5.41 8.6-10.7 13-16 4.19-5.06 8.27-10.2 12.3-15.4 3.69-4.72 7.52-9.3 11.4-13.9 2.74-3.31 5.39-6.68 8.03-10.1 4.29-5.5 8.7-10.9 13.2-16.2 2.74-3.28 5.4-6.61 8.06-9.95 2.9-3.63 5.83-7.23 8.76-10.8 3.52-4.32 7.03-8.65 10.5-13 4.04-5.07 8.14-10.1 12.2-15.1 3.56-4.39 7.1-8.79 10.6-13.2 2.24-2.8 4.5-5.57 6.77-8.35 4.67-5.74 9.32-11.5 13.9-17.3 5.52-7.06 11.2-14 16.8-21 1.67-2.05 3.33-4.1 4.99-6.16 5.41-6.69 10.9-13.3 16.4-19.9 6.17-7.25 12.2-14.6 18.2-22 0.85-1.04 0.85-1.04 1.72-2.1 6.09-7.45 12.1-15 18-22.5 4.25-5.43 8.64-10.7 13-16 3.63-4.39 7.19-8.82 10.7-13.3 4.66-5.99 9.47-11.8 14.3-17.7 4.18-5.05 8.26-10.2 12.3-15.4 3.76-4.8 7.65-9.48 11.6-14.2 3.52-4.21 6.93-8.5 10.3-12.8 4.19-5.26 8.39-10.5 12.6-15.7 4.65-5.7 9.27-11.4 13.8-17.2 4.75-6.1 9.65-12.1 14.6-18 3.67-4.44 7.29-8.9 10.9-13.4 2.79-3.48 5.61-6.93 8.43-10.4 4.17-5.13 8.3-10.3 12.4-15.5 4.23-5.42 8.58-10.7 13-16 2.74-3.29 5.41-6.62 8.07-9.97 2.83-3.54 5.7-7.05 8.57-10.6 4.09-5.03 8.14-10.1 12.1-15.2 4.68-6 9.51-11.9 14.4-17.7 4.17-5.03 8.22-10.1 12.2-15.3 3.02-3.87 6.15-7.62 9.35-11.3 4.89-5.68 9.45-11.6 13.9-17.6 3.21-4.26 6.57-8.31 10.1-12.3 1.84-2.09 3.6-4.23 5.32-6.41 0.67-0.84 1.34-1.68 2.03-2.55 1.6-2.03 3.2-4.07 4.79-6.12 5.46-7 11-13.9 16.8-20.6 2.39-2.81 4.73-5.66 7.05-8.52 3.43-4.21 6.94-8.33 10.5-12.4 4.3-4.97 8.38-10 12.3-15.3 3.45-4.55 7.12-8.9 10.8-13.2 3.08-3.6 6.02-7.27 8.9-11 2.7-3.45 5.47-6.84 8.24-10.2 4.12-5.04 8.19-10.1 12.2-15.2 4.75-6.1 9.65-12.1 14.6-18 3.67-4.44 7.29-8.9 10.9-13.4 2.79-3.48 5.61-6.93 8.43-10.4 4.09-5.03 8.14-10.1 12.1-15.2 4.68-6.01 9.51-11.9 14.4-17.8 3.63-4.39 7.19-8.82 10.7-13.3 4.66-5.99 9.47-11.8 14.3-17.7 3.63-4.39 7.19-8.82 10.7-13.3 5.28-6.78 10.7-13.4 16.2-20 2.68-3.24 5.33-6.51 7.97-9.79 8.05-9.8 16.2-18.5 26.3-26.2 1.44-1.13 1.44-1.13 2.9-2.28 24.2-18.6 52.3-30.8 82.6-35.3 1.3-0.19 1.3-0.19 2.62-0.38 7.99-1.14 16-1.83 24-2.34 2.59-0.17 5.18-0.34 7.77-0.52 9.75-0.67 19.5-1.29 29.3-1.9 5.22-0.32 10.4-0.66 15.6-0.99 3.76-0.24 7.52-0.47 11.3-0.69 46.8-2.92 87.8-15.7 123-47.6 0.56-0.51 1.12-1.01 1.69-1.54 14.9-13.7 26-30.4 37.3-47.1 2.65-3.9 5.36-7.75 8.12-11.6 5.41-7.52 10.6-15.2 15.9-22.8 0.57-0.83 1.13-1.65 1.71-2.5 3.13-4.59 6.26-9.18 9.38-13.8 2.62-3.84 5.23-7.68 7.85-11.5 3.7-5.41 7.38-10.8 11.1-16.2 0.49-0.72 0.98-1.44 1.48-2.18 5.37-7.9 10.5-15.9 15.3-24.1 1.39-2.36 2.81-4.68 4.26-7 13-20.6 22.8-42.8 30.9-65.7 0.32-0.88 0.64-1.76 0.97-2.67 20.9-57.7 27.2-121 19-181-0.11-0.93-0.23-1.85-0.35-2.8-2.11-16.3-6.53-30.1-18.4-42-1.61-1.12-1.61-1.12-3.25-2.25-0.79-0.57-1.59-1.13-2.4-1.71-50.5-32.9-151 1.39-200 21.7z"/>
<path transform="translate(312,25)" d="m0 0c1.04 0.88 2.08 1.76 3.12 2.63 2.75 2.32 5.49 4.64 8.22 6.96 2.72 2.31 5.44 4.61 8.16 6.91 3.28 2.77 6.55 5.54 9.82 8.32 5.91 5.01 11.8 9.97 17.9 14.9 3.18 2.61 6.31 5.28 9.44 7.94 4.2 3.57 8.45 7.04 12.8 10.4 9.41 7.33 18.6 15 27.6 22.8 3.44 2.97 6.91 5.88 10.4 8.74 4.85 3.93 9.58 7.98 14.3 12.1 3.52 3.03 7.08 6.01 10.7 8.94 4.85 3.93 9.58 7.98 14.3 12.1 3.52 3.03 7.08 6.01 10.7 8.94 4.85 3.93 9.58 7.98 14.3 12.1 3.52 3.03 7.08 6.01 10.7 8.94 4.85 3.93 9.58 7.99 14.3 12.1 3.5 3.01 7.04 5.97 10.6 8.88 5.1 4.14 10.1 8.44 15 12.8 4.51 3.92 9.1 7.73 13.7 11.5 3.31 2.72 6.56 5.51 9.81 8.31 4.12 3.55 8.27 7.07 12.5 10.5 4.85 3.93 9.58 7.98 14.3 12.1 3.52 3.03 7.08 6.01 10.7 8.94 4.85 3.93 9.58 7.98 14.3 12.1 3.55 3.06 7.16 6.02 10.8 8.94 40.3 33 62.9 86.6 68.4 138 1.04 11.5 1.16 22.9 1.2 34.4 0.01 3.21 0.03 6.41 0.05 9.62 0.06 9.1 0.12 18.2 0.15 27.3 0.02 5.6 0.06 11.2 0.1 16.8 0.02 2.1 0.02 4.21 0.03 6.31 0.03 18.9 0.46 38.9 7.03 56.9 0.35 0.98 0.69 1.96 1.04 2.97 11.3 31.1 33.6 53.6 58.3 74.9 3.51 3.09 6.93 6.29 10.4 9.49 2.58 2.4 5.17 4.71 7.93 6.9 2.73 2.38 4.34 4.4 6.12 7.51 0.49 0.84 0.98 1.68 1.49 2.54 2.71 5.43 3.03 11 1.59 16.9-2.53 7.3-6.76 12.2-13.7 15.7-6.11 1.93-13.2 1.98-19.3-0.01-7.91-4.33-14.3-11.4-20.8-17.6-1.82-1.74-3.7-3.41-5.62-5.05-4.5-3.88-8.82-7.96-13.2-12-3.1-2.91-6.21-5.8-9.36-8.66-20.5-18.6-35.5-40.4-46.5-65.8-0.27-0.61-0.53-1.22-0.8-1.85-3.57-8.35-6-16.8-7.95-25.6-0.2-0.9-0.4-1.8-0.6-2.73-3.04-14.6-3.95-28.9-3.99-43.8 0-3.12-0.02-6.24-0.05-9.36-0.05-6.64-0.08-13.3-0.11-19.9-0.22-83.4-0.22-83.4-35.6-158-0.92-1.24-0.92-1.24-1.84-2.5-3.38-4.58-3.38-4.58-7.24-8.76-1.8-1.86-1.8-1.86-1.8-3.86-0.53-0.23-1.06-0.46-1.61-0.7-3.12-1.7-5.81-3.84-8.58-6.05-0.6-0.48-1.21-0.96-1.83-1.46-12-9.53-23.7-19.4-35.3-29.4-7.54-6.47-15.2-12.8-22.9-19.1-3.69-3.03-7.33-6.13-11-9.23-3.37-2.86-6.77-5.67-10.2-8.46-5.12-4.16-10.1-8.48-15.1-12.8-4.51-3.92-9.1-7.73-13.8-11.5-4.48-3.68-8.86-7.47-13.2-11.2-7.26-6.24-14.6-12.4-22-18.5-4.86-3.96-9.62-8.03-14.4-12.1-3.52-3.03-7.08-6.01-10.7-8.94-5.4-4.39-10.7-8.91-16-13.4-7.26-6.24-14.6-12.4-22-18.5-4.89-3.98-9.67-8.07-14.4-12.2-3.3-2.84-6.64-5.61-10.1-8.31-5.03-3.96-9.83-8.18-14.6-12.4-3.36-2.93-6.74-5.73-10.4-8.35-1.01-0.76-2.02-1.52-3.06-2.31v-2c-0.54-0.23-1.08-0.46-1.63-0.69-3.1-1.71-5.65-3.94-8.31-6.25-1.16-0.99-2.32-1.99-3.49-2.99-0.59-0.51-1.18-1.02-1.79-1.54-8.49-7.3-17.1-14.5-25.8-21.5-1.11-0.93-2.22-1.85-3.33-2.78-1.14-0.93-2.28-1.86-3.42-2.78-0.78-0.67-0.78-0.67-1.57-1.34-2.92-2.33-4.67-3.1-8.41-3.48-3.29 0.15-3.29 0.15-5.77 1.94-1.76 2.43-1.76 2.43-1.69 5.69 1.65 5.19 4.39 7.93 8.19 11.8 1.1 1.12 2.2 2.25 3.3 3.38 6.97 7.09 6.97 7.09 14.3 13.8 4.77 4.16 9.23 8.59 13.7 13.1 0.91 0.91 1.82 1.81 2.76 2.75 2.5 2.49 5 4.99 7.49 7.48 2.71 2.7 5.41 5.4 8.12 8.1 5.9 5.89 11.8 11.8 17.7 17.7 3.69 3.68 7.37 7.37 11.1 11l30.7 30.6 7.94 7.94c0.66 0.65 1.31 1.31 1.99 1.99 10.7 10.6 21.3 21.3 32 32 11 10.9 21.9 21.9 32.9 32.8 6.15 6.14 12.3 12.3 18.4 18.4 5.24 5.23 10.5 10.5 15.7 15.7 2.67 2.67 5.33 5.34 8.01 7.99 2.9 2.89 5.79 5.79 8.68 8.7 0.84 0.83 1.68 1.66 2.54 2.51 13.2 13.3 22.2 29.4 22.9 48.4-0.4 24.4-12.6 40.3-29.4 57-1.1 1.1-2.2 2.2-3.3 3.31-2.95 2.97-5.92 5.93-8.88 8.89-2.48 2.48-4.97 4.97-7.45 7.46-5.85 5.87-11.7 11.7-17.6 17.6-6.03 6.02-12.1 12.1-18.1 18.1-5.19 5.2-10.4 10.4-15.6 15.6-3.1 3.09-6.19 6.19-9.28 9.29-2.9 2.91-5.82 5.82-8.73 8.73-1.06 1.06-2.12 2.12-3.18 3.19-14.6 14.8-30.5 24.6-51.8 24.8-29.7-0.33-47.7-20.8-67.2-40.4l-5.73-5.73c-4.09-4.1-8.18-8.19-12.3-12.3-5.92-5.94-11.8-11.9-17.8-17.8-9.62-9.63-19.2-19.3-28.8-28.9-0.58-0.57-1.15-1.15-1.74-1.74-0.58-0.58-1.15-1.15-1.74-1.75-8.16-8.17-16.3-16.3-24.5-24.5-0.86-0.87-0.86-0.87-1.74-1.75-9.59-9.61-19.2-19.2-28.8-28.8-5.91-5.91-11.8-11.8-17.7-17.7-4.04-4.05-8.09-8.1-12.1-12.2-2.33-2.34-4.66-4.67-6.98-7.01-2.53-2.53-5.06-5.07-7.59-7.6-0.73-0.73-1.46-1.46-2.2-2.21-4-3.99-8.09-7.8-12.4-11.5-2.24-1.94-4.33-3.99-6.41-6.1-0.83-0.83-1.65-1.67-2.51-2.53-0.86-0.87-1.73-1.75-2.62-2.65-1.39-1.4-2.78-2.8-4.18-4.21-3.4-3.42-6.79-6.85-10.2-10.3-1.92-1.94-3.84-3.87-5.76-5.81-1.81-1.81-3.6-3.63-5.4-5.45-0.81-0.82-1.63-1.64-2.47-2.48-0.71-0.72-1.42-1.44-2.16-2.18-3.07-2.72-4.95-3.83-9.08-3.67-2.98 0.65-2.98 0.65-4.82 2.63-1.35 2.71-1.4 4.24-1.12 7.25 1.11 2.08 1.11 2.08 2.81 4 0.96 1.16 0.96 1.16 1.94 2.35 0.74 0.88 1.48 1.75 2.25 2.65 0.87 1.03 1.73 2.06 2.6 3.09 1.87 2.22 3.76 4.44 5.65 6.66 2.43 2.86 4.82 5.77 7.19 8.69 4.41 5.42 8.95 10.7 13.5 16 6.24 7.26 12.4 14.6 18.5 22 3.96 4.86 8.03 9.62 12.1 14.4 3.03 3.52 6.01 7.08 8.94 10.7 3.33 4.1 6.74 8.13 10.2 12.1 4.49 5.21 8.89 10.5 13.2 15.8 5.16 6.31 10.4 12.5 15.8 18.6 8.26 9.44 8.26 9.44 8.26 11.9h2c1.74 2.07 3.38 4.15 5 6.31 4.3 5.61 8.81 10.9 13.6 16.1 3.13 3.45 6.04 7.05 8.97 10.7 6.31 7.72 12.9 15.2 19.5 22.7 10.3 11.8 20.5 23.6 30.4 35.7 3.96 4.86 8.03 9.62 12.1 14.4 3.01 3.5 5.97 7.04 8.88 10.6 3.6 4.43 7.31 8.76 11.1 13.1 4.5 5.16 8.89 10.4 13.2 15.7 3.23 3.92 6.54 7.77 9.86 11.6 3.11 3.61 6.12 7.28 9.07 11 11.5 14.1 27.3 24.9 43.4 33.2 0.65 0.34 1.29 0.67 1.96 1.02 37.5 19.2 77.4 19.4 118 19.5 9.4 0.03 18.8 0.08 28.2 0.14 1.5 0.01 1.5 0.01 3.02 0.02 42.5 0.33 83.8 6.14 119 31.3 0.61 0.43 1.22 0.86 1.85 1.3 10.3 7.35 19.4 15.6 28.3 24.6 0.49 0.49 0.98 0.98 1.48 1.49 5.65 5.7 11.1 11.5 16.3 17.6 3.96 4.46 7.95 8.89 12 13.2 19.3 20.6 19.3 20.6 19 32.8-1.38 6.89-4.26 12.8-9.81 17.2-7.32 4.02-14.6 5-22.6 2.81-14.7-7.37-26.8-25-37.6-37.1-6.83-7.66-6.83-7.66-14-15-0.57-0.59-1.14-1.18-1.73-1.79-9.65-9.94-20.1-16.7-32.3-23.2-1.59-0.84-3.15-1.71-4.71-2.6-23.4-12.8-51.3-13.6-77.3-13.7-3.2-0.01-6.39-0.03-9.59-0.05-9.08-0.06-18.2-0.12-27.2-0.15-63.6-0.25-63.6-0.25-89.1-7.6-0.66-0.19-1.32-0.38-1.99-0.57-4.71-1.36-9.37-2.85-14-4.43-0.66-0.22-1.32-0.45-2-0.68-10.4-3.61-20.2-8.14-30-13.3-0.99-0.52-0.99-0.52-2-1.04-10.8-5.66-20.4-12.4-30-20-0.54-0.42-1.08-0.85-1.64-1.28-9.05-7.11-16.7-14.7-23.9-23.7-2.73-3.36-5.53-6.65-8.36-9.93-1.02-1.19-2.04-2.38-3.07-3.57-0.51-0.59-1.01-1.18-1.54-1.79-5.72-6.67-11.4-13.4-17-20.2-4.41-5.42-8.95-10.7-13.5-16-6.99-8.12-13.9-16.3-20.6-24.6-1.85-2.24-3.73-4.44-5.64-6.64-0.55-0.63-1.1-1.27-1.67-1.92-1.09-1.26-2.19-2.51-3.29-3.76-3.81-4.37-3.81-4.37-3.81-6.59h-2c-1.52-1.7-1.52-1.7-3.38-4.12-3.31-4.25-6.72-8.37-10.2-12.4-4.54-5.25-8.98-10.6-13.4-15.9-5.76-7.03-11.6-14-17.6-20.8-5.7-6.64-11.4-13.3-16.9-20.1-4.41-5.42-8.95-10.7-13.5-16-6.24-7.26-12.4-14.6-18.5-22-4.41-5.42-8.95-10.7-13.5-16-6.24-7.26-12.4-14.6-18.5-22-3.96-4.86-8.03-9.62-12.1-14.4-3.77-4.39-7.45-8.85-11.1-13.4-3.24-3.93-6.57-7.78-9.9-11.6-3.06-3.56-6.06-7.17-9-10.8-2.74-3.4-5.58-6.64-8.58-9.8-13.1-13.9-21.4-29.1-21.2-48.6 1.32-15.3 8.62-29.3 19.7-39.8 12-10.1 26.1-14.1 41.6-13.2 27.5 2.84 45 25.8 63.3 44.2 2.88 2.89 5.77 5.77 8.65 8.66 4.99 4.99 9.97 9.99 15 15 7.21 7.23 14.4 14.5 21.6 21.7 11.7 11.7 23.4 23.5 35.2 35.2l2.12 2.12c9.95 9.96 19.9 19.9 29.8 29.9 0.7 0.7 1.41 1.4 2.13 2.12 0.7 0.71 1.4 1.41 2.12 2.13 11.7 11.7 23.4 23.4 35 35.1 7.2 7.21 14.4 14.4 21.6 21.6 4.93 4.94 9.86 9.87 14.8 14.8 2.84 2.84 5.68 5.69 8.52 8.53 2.6 2.62 5.2 5.22 7.81 7.83 1.38 1.38 2.76 2.77 4.14 4.15 9.47 9.97 9.47 9.97 22 14.2 4.03-0.04 6.69-1.22 10.2-3.25 0.99-0.33 1.98-0.66 3-1v-2c2.01-1.82 4.12-3.47 6.25-5.15 2.21-1.91 2.21-1.91 1.75-5.85-1.78-2.16-3.54-4.06-5.53-6.01-0.59-0.6-1.19-1.2-1.8-1.82-2-2.01-4.02-4.01-6.04-6.01-1.43-1.43-2.87-2.87-4.3-4.31-3.91-3.91-7.83-7.81-11.8-11.7-4.1-4.08-8.19-8.17-12.3-12.3-6.89-6.87-13.8-13.7-20.7-20.6-8.83-8.8-17.6-17.6-26.5-26.4-7.59-7.58-15.2-15.2-22.8-22.7-1.63-1.62-3.26-3.24-4.89-4.87-4.64-4.64-9.29-9.27-13.9-13.9-1.41-1.4-2.82-2.8-4.22-4.21-8.94-8.93-8.94-8.93-18.3-17.4-4.85-4.29-9.36-8.96-14-13.5-1.18-1.18-2.37-2.36-3.55-3.53-3.87-3.84-7.73-7.69-11.6-11.5-1.34-1.33-2.67-2.66-4.01-3.99-5.55-5.53-11.1-11.1-16.6-16.6-7.92-7.9-15.8-15.8-23.8-23.7-5.61-5.56-11.2-11.1-16.8-16.7-3.33-3.33-6.66-6.65-10-9.96-3.14-3.11-6.27-6.24-9.4-9.37-1.14-1.15-2.29-2.29-3.44-3.42-7.05-6.95-13.5-13.7-15.5-23.7 0.11-8.08 1.66-14.8 7.56-20.6 5.92-4.71 11.5-6.77 19.1-6.12 10 2.03 16.8 8.25 23 16 2 1.67 4 3.34 6 5 1.33 1.67 2.67 3.33 4 5 0.97 0.8 1.94 1.61 2.94 2.44 3.12 2.61 5.46 5.43 8.06 8.56 0.99 0.82 1.98 1.65 3 2.5 3.11 2.59 5.42 5.4 8 8.5 0.99 0.82 1.98 1.65 3 2.5 3.11 2.59 5.42 5.4 8 8.5 2 1.67 4 3.34 6 5 1.33 1.67 2.67 3.33 4 5 0.97 0.8 1.94 1.61 2.94 2.44 3.12 2.61 5.46 5.43 8.06 8.56 0.99 0.82 1.98 1.65 3 2.5 3.11 2.59 5.42 5.4 8 8.5 1.09 0.94 2.19 1.86 3.31 2.75 1.33 1.11 1.33 1.11 2.69 2.25v2c0.99 0.33 1.98 0.66 3 1 1.22 1.45 2.43 2.9 3.61 4.38 2.2 2.56 4.77 4.5 7.39 6.62 2.38 2.19 2.38 2.19 4 4v2c0.99 0.33 1.98 0.66 3 1 2.19 1.94 2.19 1.94 4 4v2c0.99 0.33 1.98 0.66 3 1 2.19 1.94 2.19 1.94 4 4v2l4 2v2c0.99 0.33 1.98 0.66 3 1 2.19 1.94 2.19 1.94 4 4v2l4 2v2c0.99 0.33 1.98 0.66 3 1v2l4 2v2c0.99 0.33 1.98 0.66 3 1v2l4 2v2c0.6 0.27 1.2 0.54 1.81 0.81 2.19 1.19 3.6 2.29 5.19 4.19v2l4 2v2c0.99 0.33 1.98 0.66 3 1v2c0.6 0.27 1.2 0.54 1.81 0.81 2.19 1.19 3.6 2.29 5.19 4.19v2c0.58 0.26 1.17 0.52 1.77 0.78 2.41 1.32 4.05 2.77 5.98 4.72 0.61 0.61 1.23 1.22 1.86 1.84 1.39 1.66 1.39 1.66 1.39 3.66 0.6 0.27 1.2 0.54 1.81 0.81 2.19 1.19 3.6 2.29 5.19 4.19v2c0.6 0.27 1.2 0.54 1.81 0.81 2.19 1.19 3.6 2.29 5.19 4.19v2c0.58 0.26 1.17 0.52 1.77 0.78 2.41 1.32 4.05 2.77 5.98 4.72 0.61 0.61 1.23 1.22 1.86 1.84 1.39 1.66 1.39 1.66 1.39 3.66 0.6 0.27 1.2 0.54 1.81 0.81 2.19 1.19 3.6 2.29 5.19 4.19v2c0.84 0.35 0.84 0.35 1.69 0.71 2.91 1.63 4.93 3.65 7.29 6.01 0.94 0.93 1.87 1.86 2.84 2.82 0.48 0.49 0.96 0.97 1.45 1.47 1.48 1.49 2.97 2.97 4.46 4.45l2.82 2.82c0.85 0.86 1.71 1.71 2.59 2.6 1.86 2.12 1.86 2.12 1.86 4.12 0.84 0.35 0.84 0.35 1.69 0.71 2.91 1.63 4.93 3.65 7.29 6.01 0.94 0.93 1.87 1.86 2.84 2.82 0.48 0.49 0.96 0.97 1.45 1.47 1.48 1.49 2.97 2.97 4.46 4.45l2.82 2.82c0.85 0.86 1.71 1.71 2.59 2.6 1.86 2.12 1.86 2.12 1.86 4.12 0.58 0.26 1.17 0.51 1.77 0.77 2.44 1.35 4.05 2.85 5.98 4.85 0.61 0.64 1.23 1.27 1.86 1.92 0.46 0.48 0.92 0.96 1.39 1.46 3.04-1.36 5.12-2.88 7.45-5.26 0.62-0.62 1.24-1.25 1.88-1.89 0.63-0.65 1.27-1.3 1.92-1.97 0.65-0.66 1.3-1.32 1.97-2 1.6-1.62 3.19-3.25 4.78-4.88l-2-5h-2c-1.44-1.46-1.44-1.46-3.11-3.48-3.83-4.5-7.9-8.68-12.1-12.8-0.78-0.79-1.57-1.58-2.38-2.4-2.59-2.59-5.17-5.17-7.76-7.75l-5.43-5.43c-3.78-3.79-7.57-7.57-11.4-11.4-4.36-4.36-8.72-8.71-13.1-13.1-4.21-4.22-8.43-8.44-12.6-12.6-1.79-1.78-3.57-3.56-5.35-5.35-2.5-2.5-5-4.99-7.5-7.48-1.09-1.1-1.09-1.1-2.2-2.21-3.17-3.16-6.36-6.24-9.77-9.14-6.4-5.52-12.2-11.6-18.2-17.6-1.4-1.39-2.79-2.78-4.18-4.18-3.76-3.76-7.52-7.52-11.3-11.3-3.94-3.95-7.89-7.89-11.8-11.8-7.46-7.46-14.9-14.9-22.4-22.4-8.48-8.48-17-17-25.4-25.5-14.5-14.5-29-29-43.5-43.5-0.61-0.62-1.22-1.23-1.85-1.86-1.12-1.12-2.24-2.25-3.37-3.37-2.35-2.36-4.7-4.71-7.06-7.07-2.13-2.13-4.25-4.26-6.36-6.4-1.51-1.51-3.02-3.03-4.52-4.55-0.77-0.77-1.53-1.54-2.32-2.34-0.73-0.73-1.47-1.47-2.22-2.23-0.67-0.67-1.33-1.34-2.02-2.03-1.91-1.89-1.91-1.89-4.82-3.71v-2c-0.59-0.25-1.18-0.5-1.78-0.75-6.25-3.52-10.3-11.1-12.6-17.7-1.58-6.65-0.23-12 3.02-17.8 3.7-5.63 7.54-8.51 13.7-11.1 7.4-1.25 13.1-0.21 19.7 3.38 7.64 6.01 14.4 13.2 21.2 20.1l3.29 3.29c3 2.99 5.99 5.99 8.98 8.98 3.23 3.24 6.47 6.47 9.71 9.71 5.6 5.6 11.2 11.2 16.8 16.8 8.1 8.1 16.2 16.2 24.3 24.3 13.2 13.2 26.3 26.3 39.4 39.5 12.8 12.8 25.5 25.5 38.3 38.3 0.78 0.79 1.57 1.58 2.38 2.39 3.95 3.95 7.9 7.89 11.8 11.8 30.4 30.5 60.9 60.9 91.3 91.4 0.93 0.93 1.85 1.85 2.81 2.8 1.19 1.2 1.19 1.2 2.42 2.42 0.72 0.73 1.44 1.45 2.18 2.19 0.71 0.74 1.42 1.48 2.15 2.24 1.98 1.88 3.18 2.38 5.85 2.76 0.36-0.86 0.36-0.86 0.72-1.74 1.54-2.72 3.4-4.36 5.72-6.45 4.28-4.21 6.86-7.77 7.56-13.8-0.74-11.7-13.4-20.6-21.3-28.5-1.56-1.55-3.11-3.11-4.66-4.67-1-0.99-1.99-1.99-2.99-2.98l-2.7-2.7c-2.31-2.3-2.31-2.3-5.31-4.18v-2c-0.58-0.26-1.16-0.51-1.76-0.78-2.45-1.34-4.08-2.81-6.05-4.78-0.75-0.74-1.5-1.49-2.27-2.25-0.82-0.82-1.64-1.64-2.48-2.49-0.87-0.87-1.74-1.73-2.64-2.63-2.42-2.41-4.84-4.83-7.25-7.25-2.61-2.61-5.22-5.21-7.83-7.81-5.11-5.1-10.2-10.2-15.3-15.3l-12.5-12.5c-0.6-0.59-1.19-1.18-1.8-1.79l-3.6-3.6c-11.3-11.3-22.5-22.5-33.8-33.8-10.3-10.3-20.6-20.6-30.9-30.9-10.6-10.6-21.2-21.2-31.8-31.7-5.94-5.94-11.9-11.9-17.8-17.8-5.06-5.05-10.1-10.1-15.2-15.2-2.58-2.59-5.16-5.16-7.74-7.74-2.81-2.79-5.61-5.6-8.4-8.41-0.81-0.8-1.62-1.6-2.45-2.43-6.92-6.98-13-14.4-16.4-23.8-0.38-1.06-0.77-2.13-1.17-3.24-3.75-11.4-3.46-25.7 1.05-36.9 0.38-0.96 0.76-1.92 1.15-2.91 5.94-13.3 16.4-23.7 29.9-29.4 25.3-9.03 46.5-0.45 66 16.3z"/>
<path transform="translate(1032 900)" d="m0 0c5.42 3.93 10.2 8.62 14.9 13.3 3.24 3.16 6.58 6.15 10 9.1 3.56 3.11 6.99 6.36 10.4 9.59 2.42 2.25 4.74 4.27 7.49 6.1v2c0.59 0.27 1.17 0.53 1.78 0.8 2.32 1.26 3.93 2.61 5.83 4.43 0.67 0.64 1.35 1.28 2.04 1.94 0.69 0.67 1.39 1.33 2.1 2.02 4.68 4.47 9.41 8.86 14.3 13.1 3.18 2.79 6.25 5.69 9.33 8.59 5 4.69 10 9.34 15.2 13.9 2.88 2.59 5.73 5.21 8.59 7.84 3.19 2.94 6.4 5.85 9.68 8.68 4.69 4.06 9.18 8.33 13.7 12.6 3.77 3.53 7.58 7 11.5 10.4 5.88 5.15 11.6 10.5 17.3 15.8 1.11 1.02 2.21 2.04 3.32 3.07 0.54 0.5 1.09 1.01 1.65 1.53 4.04 3.72 8.11 7.4 12.2 11.1 2.86 2.58 5.7 5.18 8.53 7.78 6.09 5.59 12.2 11.1 18.4 16.6 5.31 4.76 10.6 9.57 15.8 14.4 4.07 3.76 8.18 7.47 12.3 11.2 4.36 3.93 8.67 7.9 13 11.9 3 2.76 6.01 5.52 9.02 8.28l7.65 7.02c6.38 5.87 6.38 5.87 12.9 11.6 4.9 4.25 9.66 8.66 14.4 13 2.56 2.36 5.13 4.72 7.7 7.08 0.5 0.46 1 0.91 1.51 1.39 3.11 2.84 6.23 5.67 9.36 8.48 7.38 6.63 14.7 13.4 22 20.1 5.96 5.52 12 11 18 16.4 2.51 2.26 5.01 4.51 7.51 6.76 1.63 1.47 3.26 2.93 4.89 4.39 6.37 5.71 12.7 11.5 19 17.3 6.42 5.93 12.8 11.9 19.5 17.6 1.8 1.6 3.57 3.22 5.32 4.87 0.57 0.53 1.13 1.05 1.72 1.6 1.11 1.04 2.22 2.08 3.32 3.13 2.79 2.61 5.58 4.93 8.73 7.09 1.03 0.75 2.05 1.49 3.1 2.26v2c0.53 0.21 1.06 0.43 1.61 0.65 3.31 1.87 5.9 4.43 8.64 7.04 1.17 1.1 2.35 2.2 3.52 3.3 0.57 0.53 1.13 1.05 1.71 1.6 1.76 1.64 3.57 3.22 5.4 4.79 3.97 3.43 7.79 7.03 11.6 10.6 4.42 4.15 8.86 8.26 13.5 12.2 3.4 2.98 6.7 6.07 10 9.15 2.79 2.62 2.79 2.62 6.03 4.64v2c0.57 0.26 1.15 0.52 1.74 0.78 2.47 1.34 4.4 2.87 6.51 4.72 0.71 0.61 1.41 1.22 2.14 1.85 1.61 1.65 1.61 1.65 1.61 3.65 0.88 0.4 0.88 0.4 1.78 0.8 2.32 1.26 3.93 2.61 5.83 4.43 0.67 0.64 1.35 1.28 2.04 1.94 0.69 0.67 1.39 1.33 2.1 2.02 4.03 3.85 8.06 7.68 12.3 11.3 25.2 21.9 42.1 48.6 45 82.5 2.08 37.4-8.56 72-33.4 100-0.84 0.94-1.68 1.87-2.55 2.83-0.59 0.67-1.18 1.33-1.8 2.02-22.1 23.4-56 35.9-87.7 37.2-27.8 0.76-57.1-6.1-78.2-25-0.66-0.65-1.32-1.31-2.01-1.98-1.97-1.95-3.99-3.74-6.1-5.54-4.19-3.65-7.99-7.58-11.8-11.7-0.62-0.66-1.24-1.32-1.88-2.01-3.09-3.32-6.12-6.67-9.09-10.1-3.93-4.52-8.05-8.87-12.2-13.2-4.28-4.54-4.28-4.54-4.28-6.76-0.55-0.21-1.1-0.42-1.67-0.64-3.13-1.82-5.28-4.35-7.64-7.05l-2.94-3.27c-0.47-0.53-0.95-1.05-1.43-1.6-1.64-1.79-3.34-3.49-5.07-5.19-2.88-2.84-5.53-5.82-8.17-8.89-2.61-2.96-5.28-5.84-7.95-8.73-3.53-3.81-7.04-7.63-10.5-11.5-3.86-4.31-7.8-8.53-11.8-12.8-13.6-14.5-13.6-14.5-14.9-18.4h-2c-1.27-1.26-1.27-1.26-2.81-3.12-3.45-4.07-7.04-7.98-10.7-11.9-3.98-4.26-7.9-8.55-11.7-13-3.71-4.22-7.54-8.34-11.4-12.5-2.77-3.02-5.54-6.04-8.3-9.06-2.34-2.55-4.68-5.1-7.03-7.65-0.48-0.52-0.96-1.04-1.45-1.58-1.32-1.43-2.64-2.86-3.96-4.29-2.05-2.26-4.06-4.55-6.07-6.86-3.57-4.09-7.27-8.05-11-12-6.78-7.2-13.5-14.5-19.9-21.9-6.2-7.11-12.7-14-19.1-20.9-4.98-5.34-9.95-10.7-14.7-16.2-4.02-4.56-8.19-8.98-12.3-13.4-3.32-3.59-6.63-7.19-9.93-10.8-1.75-1.92-3.51-3.83-5.27-5.74-0.82-0.88-1.63-1.77-2.47-2.69-1.09-1.18-1.09-1.18-2.2-2.38-1.68-2.06-1.68-2.06-2.68-5.06h-2c-1.27-1.26-1.27-1.26-2.81-3.12-3.45-4.07-7.04-7.98-10.7-11.9-3.98-4.26-7.9-8.55-11.7-13-3.7-4.22-7.54-8.33-11.3-12.5-2.36-2.57-4.72-5.14-7.07-7.7-0.46-0.5-0.92-1-1.4-1.52-2.82-3.08-5.63-6.18-8.42-9.3-4.45-4.96-8.98-9.86-13.5-14.8-8.46-9.15-16.8-18.4-25.2-27.6-3.41-3.81-6.84-7.6-10.4-11.3-0.59-0.63-1.19-1.27-1.8-1.92-1.19-1.26-2.38-2.51-3.57-3.76-4.17-4.43-4.17-4.43-4.17-6.65h-2c-1.41-1.4-1.41-1.4-3.06-3.37-0.94-1.11-0.94-1.11-1.9-2.23-1.01-1.19-1.01-1.19-2.04-2.4-5.01-5.75-10.2-11.3-15.6-16.6-4-3.96-7.87-7.95-11.5-12.2-2.48-2.85-5.04-5.62-7.61-8.39-0.51-0.55-1.03-1.11-1.56-1.68-1.05-1.14-2.1-2.27-3.15-3.4-3.29-3.57-6.57-7.15-9.85-10.7-1.86-2.03-3.72-4.05-5.6-6.06-0.92-1-1.85-2-2.78-3-0.83-0.89-1.65-1.78-2.51-2.7-1.8-2.18-1.8-2.18-1.8-4.18h-2c-1.66-2.01-1.66-2.01-3.5-4.69-0.61-0.87-1.22-1.74-1.84-2.63-4-6.45-4.54-12.2-3.66-19.7 2.24-7.44 6.28-12.2 13-16 6.38-2.92 12.3-2.85 18.8-0.46 5.66 2.34 9.31 5.79 13.4 10.2 0.66 0.68 1.32 1.36 2 2.06 3.86 4 7.56 8.14 11.2 12.3 2.24 2.58 4.55 5.09 6.86 7.6 0.95 1.04 1.91 2.07 2.86 3.11 0.48 0.52 0.96 1.04 1.45 1.58 2.32 2.52 4.63 5.04 6.94 7.56 2.77 3.03 5.55 6.05 8.32 9.07 4.99 5.43 9.95 10.9 14.9 16.4 2.54 2.82 5.11 5.63 7.68 8.43 0.45 0.5 0.91 1 1.39 1.51 2.37 2.59 4.75 5.18 7.13 7.76 4.44 4.83 8.85 9.67 13.1 14.6 1.65 1.86 3.32 3.68 5.02 5.49 0.55 0.58 1.09 1.16 1.65 1.76 1.09 1.17 2.19 2.33 3.29 3.48 2.32 2.48 3.91 4.22 5 7.48h2c1.34 1.33 1.34 1.33 2.94 3.25 3.07 3.62 6.22 7.14 9.44 10.6 3.37 3.67 6.73 7.35 10.1 11.1 3.47 3.86 6.97 7.69 10.5 11.5 13.8 14.9 13.8 14.9 19.3 21.3 4.04 4.65 8.28 9.12 12.5 13.6 4.07 4.34 8.08 8.73 12 13.2 2.55 2.84 5.13 5.65 7.71 8.46 3.33 3.63 6.65 7.27 9.94 10.9 4 4.45 8.05 8.85 12.1 13.2 3.01 3.25 5.99 6.52 8.94 9.81 7.56 8.43 15.1 16.8 23.3 24.7 2.56 2.63 4.94 5.39 7.35 8.16 3.05 3.45 6.21 6.79 9.38 10.1 4.38 4.63 8.68 9.31 12.8 14.1 2.4 2.74 4.86 5.41 7.34 8.07 1.04 1.12 2.08 2.25 3.12 3.37 0.53 0.57 1.06 1.14 1.6 1.72 6.82 7.36 13.6 14.7 20.3 22.2 4.39 4.87 8.83 9.69 13.3 14.5 7.44 8.1 14.8 16.2 22.2 24.4 6.92 7.71 13.9 15.4 21 23 8.89 9.6 8.89 9.6 12.4 13.6 4.51 5.21 9.22 10.2 13.9 15.3 8.29 8.95 16.5 17.9 24.6 27 4.63 5.17 9.33 10.3 14.1 15.3 4.11 4.39 8.18 8.8 12.1 13.4 2.8 3.2 5.69 6.32 8.57 9.44 2.99 3.25 5.94 6.53 8.88 9.82 1.43 1.59 2.87 3.17 4.31 4.75 0.64 0.71 1.29 1.42 1.95 2.15 12.1 12.8 28.2 19 45.6 20.1 22.3 0.56 44.8-6.84 61.8-21.6 17.1-17.4 24.9-39.1 24.8-63.2-0.26-19.4-8.51-35.9-22.2-49.4l-2-1v-2c-0.88-0.39-0.88-0.39-1.77-0.8-2.33-1.25-3.93-2.6-5.84-4.43-0.67-0.64-1.34-1.28-2.04-1.93-0.69-0.67-1.38-1.34-2.1-2.03-4.69-4.47-9.42-8.86-14.3-13.1-3.09-2.72-6.06-5.55-9.05-8.39-5.59-5.25-11.3-10.3-17.2-15.2-3.56-3.03-6.93-6.15-10.2-9.51-1.62-1.63-3.3-3.12-5.04-4.61-4.1-3.54-8.05-7.23-12-10.9-4.41-4.13-8.84-8.22-13.4-12.2-3.45-3.03-6.79-6.16-10.2-9.28-4.09-3.79-8.23-7.54-12.4-11.3-3.86-3.48-7.67-7-11.5-10.5-2.28-2.09-4.6-4.12-6.93-6.15-4.83-4.21-9.47-8.61-14.1-13-3.96-3.74-7.99-7.38-12.1-11-2.76-2.41-5.45-4.9-8.14-7.4-1.12-1.04-2.25-2.08-3.37-3.12-0.84-0.78-0.84-0.78-1.7-1.57-6.44-5.97-12.9-11.9-19.5-17.7-3.36-2.97-6.64-6.02-9.93-9.07-2.12-1.96-4.22-3.83-6.57-5.52-0.54-0.43-1.08-0.86-1.64-1.3v-2c-0.88-0.39-0.88-0.39-1.77-0.8-2.33-1.25-3.93-2.6-5.84-4.43-0.67-0.64-1.34-1.28-2.04-1.93-1.04-1-1.04-1-2.1-2.03-4.67-4.46-9.38-8.83-14.3-13.1-4.1-3.6-8.03-7.39-12-11.1-3.97-3.75-8.01-7.4-12.1-11-2.63-2.29-5.18-4.64-7.74-7-3.67-3.38-7.35-6.74-11.1-10.1-3.93-3.52-7.81-7.09-11.7-10.7-4.05-3.75-8.13-7.44-12.3-11-2.15-1.89-4.25-3.83-6.35-5.77-4.24-3.94-8.51-7.75-13-11.4-6.04-4.86-11.6-10.2-17.3-15.5-3.05-2.87-6.17-5.65-9.34-8.38-3.5-3.08-6.9-6.27-10.3-9.44-2.84-2.64-5.7-5.24-8.64-7.77-4.67-4.04-9.14-8.29-13.6-12.5-3.73-3.49-7.5-6.93-11.4-10.3-3.64-3.21-7.18-6.54-10.7-9.86-2.96-2.82-2.96-2.82-6.39-5v-2c-0.58-0.25-1.16-0.51-1.76-0.77-2.48-1.36-4.04-2.87-5.99-4.92-3.2-3.28-6.51-6.34-9.98-9.33-2.8-2.44-5.54-4.96-8.27-7.48-3.23-2.98-6.48-5.94-9.81-8.81-4.69-4.06-9.17-8.33-13.7-12.6-3.74-3.51-7.53-6.95-11.4-10.3-2.8-2.46-5.53-4.98-8.26-7.51-0.55-0.51-1.11-1.02-1.68-1.55-2.8-2.59-5.58-5.18-8.36-7.78-1.07-0.99-2.14-1.98-3.21-2.98-0.53-0.49-1.05-0.98-1.6-1.49-2.82-2.61-5.68-5.13-8.64-7.58-15.2-12.5-15.2-12.5-18.3-21.9-0.64-7.67-0.92-14.7 4-21 8.72-9.35 20.5-12.5 32.1-6.08z"/>
</svg>
